<?xml version="1.0" standalone="no"?>
<!DOCTYPE svg PUBLIC "-//W3C//DTD SVG 20010904//EN"
 "http://www.w3.org/TR/2001/REC-SVG-20010904/DTD/svg10.dtd">
<svg version="1.0" xmlns="http://www.w3.org/2000/svg"
 width="351.000000pt" height="602.000000pt" viewBox="0 0 351.000000 602.000000"
 preserveAspectRatio="xMidYMid meet">
<metadata>
Created by potrace 1.16, written by Peter Selinger 2001-2019
</metadata>
<g transform="translate(0.000000,602.000000) scale(0.100000,-0.100000)"
fill="#000000" stroke="none">
<path d="M1570 5536 c-399 -58 -705 -257 -901 -586 -133 -224 -203 -551 -179
-841 10 -116 51 -334 71 -372 9 -16 74 -17 1197 -15 l1187 3 22 65 c58 178 76
497 39 705 -87 483 -383 840 -816 985 -172 58 -439 82 -620 56z"/>
<path d="M590 3685 c0 -10 63 -160 138 -330 146 -331 188 -457 236 -715 32
-173 43 -269 65 -566 15 -208 20 -245 38 -270 11 -16 23 -41 26 -55 4 -14 16
-36 27 -49 11 -13 20 -31 20 -42 0 -17 22 -18 617 -16 609 3 618 3 621 23 2
11 12 29 22 40 10 11 21 34 25 52 3 17 12 37 20 43 20 17 33 97 40 255 13 288
48 549 106 774 41 160 98 311 238 627 44 100 83 193 87 207 l6 27 -1166 0
c-641 0 -1166 -2 -1166 -5z"/>
<path d="M1212 1440 c1 -164 2 -171 25 -192 30 -28 29 -49 -2 -78 -14 -13 -25
-31 -25 -41 0 -9 11 -24 25 -33 14 -9 25 -25 25 -36 0 -11 -11 -30 -25 -42
-14 -12 -25 -28 -25 -36 0 -8 11 -25 25 -38 14 -13 25 -32 25 -43 0 -11 -11
-28 -25 -37 -14 -9 -25 -24 -25 -33 0 -10 11 -27 25 -39 16 -14 25 -32 25 -52
0 -44 73 -100 129 -100 13 0 46 -26 87 -69 40 -43 79 -75 102 -83 42 -14 284
-18 347 -5 31 7 54 24 108 83 53 56 76 74 96 74 32 0 112 48 135 81 18 26 21
65 6 74 -18 11 -11 64 9 74 31 17 33 40 6 65 -32 30 -32 66 0 94 21 19 24 26
15 43 -6 11 -18 23 -26 26 -23 9 -17 57 11 83 14 13 25 27 25 32 0 4 -11 18
-25 30 -14 12 -25 32 -25 46 0 14 11 35 25 48 24 22 25 28 25 149 l0 125 -550
0 -550 0 2 -170z"/>
</g>
</svg>
